<?xml version="1.0" encoding="UTF-8"?>
<!DOCTYPE svg PUBLIC "-//W3C//DTD SVG 1.1//EN" "http://www.w3.org/Graphics/SVG/1.1/DTD/svg11.dtd">
<svg width="344mm" height="211mm" viewBox="0 0 34400 21100" version="1.1" xmlns="http://www.w3.org/2000/svg" xmlns:xlink="http://www.w3.org/1999/xlink" stroke-width="28.222" stroke-linejoin="round" xml:space="preserve">
 <path fill="rgb(255,255,255)" stroke="none" d="M 17189,21137 L 0,21137 0,0 34377,0 34377,21137 17189,21137 Z"/>
 <path fill="none" stroke="rgb(179,179,179)" stroke-linejoin="round" d="M 17162,18550 L 5515,18550 5515,3385 28809,3385 28809,18550 17162,18550 Z"/>
 <path fill="none" stroke="rgb(179,179,179)" stroke-linejoin="round" d="M 5515,3384 L 5515,18549"/>
 <path fill="none" stroke="rgb(179,179,179)" stroke-linejoin="round" d="M 7306,3384 L 7306,18549"/>
 <path fill="none" stroke="rgb(179,179,179)" stroke-linejoin="round" d="M 9098,3384 L 9098,18549"/>
 <path fill="none" stroke="rgb(179,179,179)" stroke-linejoin="round" d="M 10890,3384 L 10890,18549"/>
 <path fill="none" stroke="rgb(179,179,179)" stroke-linejoin="round" d="M 12682,3384 L 12682,18549"/>
 <path fill="none" stroke="rgb(179,179,179)" stroke-linejoin="round" d="M 14474,3384 L 14474,18549"/>
 <path fill="none" stroke="rgb(179,179,179)" stroke-linejoin="round" d="M 16266,3384 L 16266,18549"/>
 <path fill="none" stroke="rgb(179,179,179)" stroke-linejoin="round" d="M 18057,3384 L 18057,18549"/>
 <path fill="none" stroke="rgb(179,179,179)" stroke-linejoin="round" d="M 19849,3384 L 19849,18549"/>
 <path fill="none" stroke="rgb(179,179,179)" stroke-linejoin="round" d="M 21641,3384 L 21641,18549"/>
 <path fill="none" stroke="rgb(179,179,179)" stroke-linejoin="round" d="M 23433,3384 L 23433,18549"/>
 <path fill="none" stroke="rgb(179,179,179)" stroke-linejoin="round" d="M 25225,3384 L 25225,18549"/>
 <path fill="none" stroke="rgb(179,179,179)" stroke-linejoin="round" d="M 27017,3384 L 27017,18549"/>
 <path fill="none" stroke="rgb(179,179,179)" stroke-linejoin="round" d="M 28809,3384 L 28809,18549"/>
 <path fill="none" stroke="rgb(221,221,221)" stroke-linejoin="round" d="M 5873,3384 L 5873,18549"/>
 <path fill="none" stroke="rgb(221,221,221)" stroke-linejoin="round" d="M 6231,3384 L 6231,18549"/>
 <path fill="none" stroke="rgb(221,221,221)" stroke-linejoin="round" d="M 6590,3384 L 6590,18549"/>
 <path fill="none" stroke="rgb(221,221,221)" stroke-linejoin="round" d="M 6948,3384 L 6948,18549"/>
 <path fill="none" stroke="rgb(221,221,221)" stroke-linejoin="round" d="M 7665,3384 L 7665,18549"/>
 <path fill="none" stroke="rgb(221,221,221)" stroke-linejoin="round" d="M 8023,3384 L 8023,18549"/>
 <path fill="none" stroke="rgb(221,221,221)" stroke-linejoin="round" d="M 8382,3384 L 8382,18549"/>
 <path fill="none" stroke="rgb(221,221,221)" stroke-linejoin="round" d="M 8740,3384 L 8740,18549"/>
 <path fill="none" stroke="rgb(221,221,221)" stroke-linejoin="round" d="M 9457,3384 L 9457,18549"/>
 <path fill="none" stroke="rgb(221,221,221)" stroke-linejoin="round" d="M 9815,3384 L 9815,18549"/>
 <path fill="none" stroke="rgb(221,221,221)" stroke-linejoin="round" d="M 10174,3384 L 10174,18549"/>
 <path fill="none" stroke="rgb(221,221,221)" stroke-linejoin="round" d="M 10532,3384 L 10532,18549"/>
 <path fill="none" stroke="rgb(221,221,221)" stroke-linejoin="round" d="M 11249,3384 L 11249,18549"/>
 <path fill="none" stroke="rgb(221,221,221)" stroke-linejoin="round" d="M 11607,3384 L 11607,18549"/>
 <path fill="none" stroke="rgb(221,221,221)" stroke-linejoin="round" d="M 11965,3384 L 11965,18549"/>
 <path fill="none" stroke="rgb(221,221,221)" stroke-linejoin="round" d="M 12324,3384 L 12324,18549"/>
 <path fill="none" stroke="rgb(221,221,221)" stroke-linejoin="round" d="M 13041,3384 L 13041,18549"/>
 <path fill="none" stroke="rgb(221,221,221)" stroke-linejoin="round" d="M 13399,3384 L 13399,18549"/>
 <path fill="none" stroke="rgb(221,221,221)" stroke-linejoin="round" d="M 13757,3384 L 13757,18549"/>
 <path fill="none" stroke="rgb(221,221,221)" stroke-linejoin="round" d="M 14116,3384 L 14116,18549"/>
 <path fill="none" stroke="rgb(221,221,221)" stroke-linejoin="round" d="M 14833,3384 L 14833,18549"/>
 <path fill="none" stroke="rgb(221,221,221)" stroke-linejoin="round" d="M 15191,3384 L 15191,18549"/>
 <path fill="none" stroke="rgb(221,221,221)" stroke-linejoin="round" d="M 15549,3384 L 15549,18549"/>
 <path fill="none" stroke="rgb(221,221,221)" stroke-linejoin="round" d="M 15908,3384 L 15908,18549"/>
 <path fill="none" stroke="rgb(221,221,221)" stroke-linejoin="round" d="M 16624,3384 L 16624,18549"/>
 <path fill="none" stroke="rgb(221,221,221)" stroke-linejoin="round" d="M 16983,3384 L 16983,18549"/>
 <path fill="none" stroke="rgb(221,221,221)" stroke-linejoin="round" d="M 17340,3384 L 17340,18549"/>
 <path fill="none" stroke="rgb(221,221,221)" stroke-linejoin="round" d="M 17699,3384 L 17699,18549"/>
 <path fill="none" stroke="rgb(221,221,221)" stroke-linejoin="round" d="M 18415,3384 L 18415,18549"/>
 <path fill="none" stroke="rgb(221,221,221)" stroke-linejoin="round" d="M 18774,3384 L 18774,18549"/>
 <path fill="none" stroke="rgb(221,221,221)" stroke-linejoin="round" d="M 19132,3384 L 19132,18549"/>
 <path fill="none" stroke="rgb(221,221,221)" stroke-linejoin="round" d="M 19491,3384 L 19491,18549"/>
 <path fill="none" stroke="rgb(221,221,221)" stroke-linejoin="round" d="M 20207,3384 L 20207,18549"/>
 <path fill="none" stroke="rgb(221,221,221)" stroke-linejoin="round" d="M 20566,3384 L 20566,18549"/>
 <path fill="none" stroke="rgb(221,221,221)" stroke-linejoin="round" d="M 20924,3384 L 20924,18549"/>
 <path fill="none" stroke="rgb(221,221,221)" stroke-linejoin="round" d="M 21282,3384 L 21282,18549"/>
 <path fill="none" stroke="rgb(221,221,221)" stroke-linejoin="round" d="M 21999,3384 L 21999,18549"/>
 <path fill="none" stroke="rgb(221,221,221)" stroke-linejoin="round" d="M 22358,3384 L 22358,18549"/>
 <path fill="none" stroke="rgb(221,221,221)" stroke-linejoin="round" d="M 22716,3384 L 22716,18549"/>
 <path fill="none" stroke="rgb(221,221,221)" stroke-linejoin="round" d="M 23074,3384 L 23074,18549"/>
 <path fill="none" stroke="rgb(221,221,221)" stroke-linejoin="round" d="M 23791,3384 L 23791,18549"/>
 <path fill="none" stroke="rgb(221,221,221)" stroke-linejoin="round" d="M 24150,3384 L 24150,18549"/>
 <path fill="none" stroke="rgb(221,221,221)" stroke-linejoin="round" d="M 24508,3384 L 24508,18549"/>
 <path fill="none" stroke="rgb(221,221,221)" stroke-linejoin="round" d="M 24866,3384 L 24866,18549"/>
 <path fill="none" stroke="rgb(221,221,221)" stroke-linejoin="round" d="M 25583,3384 L 25583,18549"/>
 <path fill="none" stroke="rgb(221,221,221)" stroke-linejoin="round" d="M 25941,3384 L 25941,18549"/>
 <path fill="none" stroke="rgb(221,221,221)" stroke-linejoin="round" d="M 26300,3384 L 26300,18549"/>
 <path fill="none" stroke="rgb(221,221,221)" stroke-linejoin="round" d="M 26658,3384 L 26658,18549"/>
 <path fill="none" stroke="rgb(221,221,221)" stroke-linejoin="round" d="M 27375,3384 L 27375,18549"/>
 <path fill="none" stroke="rgb(221,221,221)" stroke-linejoin="round" d="M 27733,3384 L 27733,18549"/>
 <path fill="none" stroke="rgb(221,221,221)" stroke-linejoin="round" d="M 28092,3384 L 28092,18549"/>
 <path fill="none" stroke="rgb(221,221,221)" stroke-linejoin="round" d="M 28450,3384 L 28450,18549"/>
 <path fill="none" stroke="rgb(179,179,179)" stroke-linejoin="round" d="M 28809,18549 L 5515,18549"/>
 <path fill="none" stroke="rgb(179,179,179)" stroke-linejoin="round" d="M 28809,16021 L 5515,16021"/>
 <path fill="none" stroke="rgb(179,179,179)" stroke-linejoin="round" d="M 28809,13494 L 5515,13494"/>
 <path fill="none" stroke="rgb(179,179,179)" stroke-linejoin="round" d="M 28809,10966 L 5515,10966"/>
 <path fill="none" stroke="rgb(179,179,179)" stroke-linejoin="round" d="M 28809,8438 L 5515,8438"/>
 <path fill="none" stroke="rgb(179,179,179)" stroke-linejoin="round" d="M 28809,5910 L 5515,5910"/>
 <path fill="none" stroke="rgb(179,179,179)" stroke-linejoin="round" d="M 28809,3384 L 5515,3384"/>
 <path fill="none" stroke="rgb(221,221,221)" stroke-linejoin="round" d="M 28809,17788 L 5515,17788"/>
 <path fill="none" stroke="rgb(221,221,221)" stroke-linejoin="round" d="M 28809,17342 L 5515,17342"/>
 <path fill="none" stroke="rgb(221,221,221)" stroke-linejoin="round" d="M 28809,17027 L 5515,17027"/>
 <path fill="none" stroke="rgb(221,221,221)" stroke-linejoin="round" d="M 28809,16782 L 5515,16782"/>
 <path fill="none" stroke="rgb(221,221,221)" stroke-linejoin="round" d="M 28809,16581 L 5515,16581"/>
 <path fill="none" stroke="rgb(221,221,221)" stroke-linejoin="round" d="M 28809,16412 L 5515,16412"/>
 <path fill="none" stroke="rgb(221,221,221)" stroke-linejoin="round" d="M 28809,16266 L 5515,16266"/>
 <path fill="none" stroke="rgb(221,221,221)" stroke-linejoin="round" d="M 28809,16136 L 5515,16136"/>
 <path fill="none" stroke="rgb(221,221,221)" stroke-linejoin="round" d="M 28809,15261 L 5515,15261"/>
 <path fill="none" stroke="rgb(221,221,221)" stroke-linejoin="round" d="M 28809,14816 L 5515,14816"/>
 <path fill="none" stroke="rgb(221,221,221)" stroke-linejoin="round" d="M 28809,14500 L 5515,14500"/>
 <path fill="none" stroke="rgb(221,221,221)" stroke-linejoin="round" d="M 28809,14255 L 5515,14255"/>
 <path fill="none" stroke="rgb(221,221,221)" stroke-linejoin="round" d="M 28809,14055 L 5515,14055"/>
 <path fill="none" stroke="rgb(221,221,221)" stroke-linejoin="round" d="M 28809,13885 L 5515,13885"/>
 <path fill="none" stroke="rgb(221,221,221)" stroke-linejoin="round" d="M 28809,13739 L 5515,13739"/>
 <path fill="none" stroke="rgb(221,221,221)" stroke-linejoin="round" d="M 28809,13610 L 5515,13610"/>
 <path fill="none" stroke="rgb(221,221,221)" stroke-linejoin="round" d="M 28809,12733 L 5515,12733"/>
 <path fill="none" stroke="rgb(221,221,221)" stroke-linejoin="round" d="M 28809,12288 L 5515,12288"/>
 <path fill="none" stroke="rgb(221,221,221)" stroke-linejoin="round" d="M 28809,11972 L 5515,11972"/>
 <path fill="none" stroke="rgb(221,221,221)" stroke-linejoin="round" d="M 28809,11727 L 5515,11727"/>
 <path fill="none" stroke="rgb(221,221,221)" stroke-linejoin="round" d="M 28809,11527 L 5515,11527"/>
 <path fill="none" stroke="rgb(221,221,221)" stroke-linejoin="round" d="M 28809,11358 L 5515,11358"/>
 <path fill="none" stroke="rgb(221,221,221)" stroke-linejoin="round" d="M 28809,11211 L 5515,11211"/>
 <path fill="none" stroke="rgb(221,221,221)" stroke-linejoin="round" d="M 28809,11082 L 5515,11082"/>
 <path fill="none" stroke="rgb(221,221,221)" stroke-linejoin="round" d="M 28809,10205 L 5515,10205"/>
 <path fill="none" stroke="rgb(221,221,221)" stroke-linejoin="round" d="M 28809,9760 L 5515,9760"/>
 <path fill="none" stroke="rgb(221,221,221)" stroke-linejoin="round" d="M 28809,9444 L 5515,9444"/>
 <path fill="none" stroke="rgb(221,221,221)" stroke-linejoin="round" d="M 28809,9199 L 5515,9199"/>
 <path fill="none" stroke="rgb(221,221,221)" stroke-linejoin="round" d="M 28809,8999 L 5515,8999"/>
 <path fill="none" stroke="rgb(221,221,221)" stroke-linejoin="round" d="M 28809,8830 L 5515,8830"/>
 <path fill="none" stroke="rgb(221,221,221)" stroke-linejoin="round" d="M 28809,8683 L 5515,8683"/>
 <path fill="none" stroke="rgb(221,221,221)" stroke-linejoin="round" d="M 28809,8554 L 5515,8554"/>
 <path fill="none" stroke="rgb(221,221,221)" stroke-linejoin="round" d="M 28809,7677 L 5515,7677"/>
 <path fill="none" stroke="rgb(221,221,221)" stroke-linejoin="round" d="M 28809,7232 L 5515,7232"/>
 <path fill="none" stroke="rgb(221,221,221)" stroke-linejoin="round" d="M 28809,6916 L 5515,6916"/>
 <path fill="none" stroke="rgb(221,221,221)" stroke-linejoin="round" d="M 28809,6671 L 5515,6671"/>
 <path fill="none" stroke="rgb(221,221,221)" stroke-linejoin="round" d="M 28809,6471 L 5515,6471"/>
 <path fill="none" stroke="rgb(221,221,221)" stroke-linejoin="round" d="M 28809,6302 L 5515,6302"/>
 <path fill="none" stroke="rgb(221,221,221)" stroke-linejoin="round" d="M 28809,6155 L 5515,6155"/>
 <path fill="none" stroke="rgb(221,221,221)" stroke-linejoin="round" d="M 28809,6026 L 5515,6026"/>
 <path fill="none" stroke="rgb(221,221,221)" stroke-linejoin="round" d="M 28809,5150 L 5515,5150"/>
 <path fill="none" stroke="rgb(221,221,221)" stroke-linejoin="round" d="M 28809,4705 L 5515,4705"/>
 <path fill="none" stroke="rgb(221,221,221)" stroke-linejoin="round" d="M 28809,4389 L 5515,4389"/>
 <path fill="none" stroke="rgb(221,221,221)" stroke-linejoin="round" d="M 28809,4144 L 5515,4144"/>
 <path fill="none" stroke="rgb(221,221,221)" stroke-linejoin="round" d="M 28809,3944 L 5515,3944"/>
 <path fill="none" stroke="rgb(221,221,221)" stroke-linejoin="round" d="M 28809,3775 L 5515,3775"/>
 <path fill="none" stroke="rgb(221,221,221)" stroke-linejoin="round" d="M 28809,3628 L 5515,3628"/>
 <path fill="none" stroke="rgb(221,221,221)" stroke-linejoin="round" d="M 28809,3499 L 5515,3499"/>
 <path fill="none" stroke="rgb(179,179,179)" stroke-linejoin="round" d="M 5515,18699 L 5515,18549"/>
 <path fill="none" stroke="rgb(179,179,179)" stroke-linejoin="round" d="M 5515,18699 L 5515,18549"/>
 <path fill="none" stroke="rgb(179,179,179)" stroke-linejoin="round" d="M 7306,18699 L 7306,18549"/>
 <path fill="none" stroke="rgb(179,179,179)" stroke-linejoin="round" d="M 7306,18699 L 7306,18549"/>
 <path fill="none" stroke="rgb(179,179,179)" stroke-linejoin="round" d="M 9098,18699 L 9098,18549"/>
 <path fill="none" stroke="rgb(179,179,179)" stroke-linejoin="round" d="M 9098,18699 L 9098,18549"/>
 <path fill="none" stroke="rgb(179,179,179)" stroke-linejoin="round" d="M 10890,18699 L 10890,18549"/>
 <path fill="none" stroke="rgb(179,179,179)" stroke-linejoin="round" d="M 10890,18699 L 10890,18549"/>
 <path fill="none" stroke="rgb(179,179,179)" stroke-linejoin="round" d="M 12682,18699 L 12682,18549"/>
 <path fill="none" stroke="rgb(179,179,179)" stroke-linejoin="round" d="M 12682,18699 L 12682,18549"/>
 <path fill="none" stroke="rgb(179,179,179)" stroke-linejoin="round" d="M 14474,18699 L 14474,18549"/>
 <path fill="none" stroke="rgb(179,179,179)" stroke-linejoin="round" d="M 14474,18699 L 14474,18549"/>
 <path fill="none" stroke="rgb(179,179,179)" stroke-linejoin="round" d="M 16266,18699 L 16266,18549"/>
 <path fill="none" stroke="rgb(179,179,179)" stroke-linejoin="round" d="M 16266,18699 L 16266,18549"/>
 <path fill="none" stroke="rgb(179,179,179)" stroke-linejoin="round" d="M 18057,18699 L 18057,18549"/>
 <path fill="none" stroke="rgb(179,179,179)" stroke-linejoin="round" d="M 18057,18699 L 18057,18549"/>
 <path fill="none" stroke="rgb(179,179,179)" stroke-linejoin="round" d="M 19849,18699 L 19849,18549"/>
 <path fill="none" stroke="rgb(179,179,179)" stroke-linejoin="round" d="M 19849,18699 L 19849,18549"/>
 <path fill="none" stroke="rgb(179,179,179)" stroke-linejoin="round" d="M 21641,18699 L 21641,18549"/>
 <path fill="none" stroke="rgb(179,179,179)" stroke-linejoin="round" d="M 21641,18699 L 21641,18549"/>
 <path fill="none" stroke="rgb(179,179,179)" stroke-linejoin="round" d="M 23433,18699 L 23433,18549"/>
 <path fill="none" stroke="rgb(179,179,179)" stroke-linejoin="round" d="M 23433,18699 L 23433,18549"/>
 <path fill="none" stroke="rgb(179,179,179)" stroke-linejoin="round" d="M 25225,18699 L 25225,18549"/>
 <path fill="none" stroke="rgb(179,179,179)" stroke-linejoin="round" d="M 25225,18699 L 25225,18549"/>
 <path fill="none" stroke="rgb(179,179,179)" stroke-linejoin="round" d="M 27017,18699 L 27017,18549"/>
 <path fill="none" stroke="rgb(179,179,179)" stroke-linejoin="round" d="M 27017,18699 L 27017,18549"/>
 <path fill="none" stroke="rgb(179,179,179)" stroke-linejoin="round" d="M 28809,18699 L 28809,18549"/>
 <path fill="none" stroke="rgb(179,179,179)" stroke-linejoin="round" d="M 28809,18699 L 28809,18549"/>
 <path fill="none" stroke="rgb(179,179,179)" stroke-linejoin="round" d="M 5515,18549 L 28809,18549"/>
 <path fill="none" stroke="rgb(179,179,179)" stroke-linejoin="round" d="M 5365,18549 L 5515,18549"/>
 <path fill="none" stroke="rgb(179,179,179)" stroke-linejoin="round" d="M 5365,18549 L 5515,18549"/>
 <path fill="none" stroke="rgb(179,179,179)" stroke-linejoin="round" d="M 5365,16021 L 5515,16021"/>
 <path fill="none" stroke="rgb(179,179,179)" stroke-linejoin="round" d="M 5365,16021 L 5515,16021"/>
 <path fill="none" stroke="rgb(179,179,179)" stroke-linejoin="round" d="M 5365,13494 L 5515,13494"/>
 <path fill="none" stroke="rgb(179,179,179)" stroke-linejoin="round" d="M 5365,13494 L 5515,13494"/>
 <path fill="none" stroke="rgb(179,179,179)" stroke-linejoin="round" d="M 5365,10966 L 5515,10966"/>
 <path fill="none" stroke="rgb(179,179,179)" stroke-linejoin="round" d="M 5365,10966 L 5515,10966"/>
 <path fill="none" stroke="rgb(179,179,179)" stroke-linejoin="round" d="M 5365,8438 L 5515,8438"/>
 <path fill="none" stroke="rgb(179,179,179)" stroke-linejoin="round" d="M 5365,8438 L 5515,8438"/>
 <path fill="none" stroke="rgb(179,179,179)" stroke-linejoin="round" d="M 5365,5910 L 5515,5910"/>
 <path fill="none" stroke="rgb(179,179,179)" stroke-linejoin="round" d="M 5365,5910 L 5515,5910"/>
 <path fill="none" stroke="rgb(179,179,179)" stroke-linejoin="round" d="M 5365,3384 L 5515,3384"/>
 <path fill="none" stroke="rgb(179,179,179)" stroke-linejoin="round" d="M 5365,3384 L 5515,3384"/>
 <path fill="none" stroke="rgb(179,179,179)" stroke-linejoin="round" d="M 5515,18549 L 5515,3384"/>
 <path fill="none" stroke="rgb(255,149,14)" stroke-width="80" stroke-linejoin="round" d="M 5515,3408 L 5538,3416 5550,3420 5573,3425 5585,3428 5608,3432 5620,3435 5632,3437 5644,3439 5655,3441 5679,3445 5690,3447 5714,3450 5726,3452 5737,3454 5761,3457 5773,3459 5796,3462 5808,3464 5831,3467 5843,3469 5855,3471 5867,3472 5878,3474 5902,3478 5914,3479 5925,3481 5949,3484 5961,3486 5984,3489 5996,3491 6019,3495 6031,3496 6055,3500 6066,3502 6090,3505 6102,3507 6113,3509 6137,3513 6148,3514 6172,3518 6184,3520 6207,3524 6219,3526 6242,3529 6254,3531 6278,3535 6289,3537 6301,3539 6313,3541 6324,3543 6336,3545 6360,3549 6372,3550 6395,3554 6407,3556 6419,3558 6430,3560 6442,3562 6466,3566 6477,3568 6489,3570 6513,3574 6524,3576 6548,3580 6560,3582 6583,3586 6595,3588 6618,3592 6630,3594 6653,3598 6665,3600 6677,3602 6700,3606 6712,3609 6724,3611 6736,3613 6747,3615 6771,3619 6782,3622 6806,3626 6818,3628 6841,3633 6853,3635 6865,3637 6888,3642 6900,3644 6924,3649 6935,3651 6959,3656 6971,3658 6994,3663 7006,3665 7029,3670 7041,3672 7065,3677 7076,3679 7088,3682 7111,3687 7123,3689 7147,3694 7158,3696 7170,3699 7182,3701 7194,3704 7217,3708 7229,3711 7252,3716 7264,3719 7276,3721 7299,3726 7311,3729 7323,3732 7335,3734 7346,3737 7370,3742 7382,3745 7405,3750 7417,3753 7440,3759 7452,3761 7464,3764 7476,3767 7487,3770 7499,3772 7523,3778 7534,3781 7546,3783 7558,3786 7569,3789 7593,3795 7605,3797 7628,3803 7640,3806 7652,3809 7675,3815 7687,3817 7698,3820 7710,3823 7722,3826 7745,3832 7757,3835 7781,3841 7792,3844 7816,3850 7828,3853 7840,3856 7863,3862 7875,3866 7898,3872 7910,3875 7934,3881 7945,3884 7957,3888 7969,3891 7981,3894 8004,3900 8016,3903 8027,3907 8051,3913 8063,3916 8086,3922 8098,3925 8121,3932 8133,3935 8157,3941 8168,3945 8192,3951 8203,3955 8215,3958 8239,3965 8250,3968 8274,3975 8286,3978 8309,3985 8321,3989 8333,3992 8345,3995 8356,3999 8380,4006 8392,4009 8403,4013 8427,4020 8439,4023 8450,4027 8462,4030 8474,4034 8497,4041 8509,4044 8544,4059 8568,4066 8591,4073 8615,4080 8638,4088 8661,4095 8685,4102 8708,4110 8732,4117 8755,4125 8779,4132 8803,4140 8826,4147 8850,4155 8873,4163 8897,4170 8920,4178 8944,4186 8967,4194 8990,4202 9014,4210 9037,4218 9061,4226 9084,4234 9108,4242 9131,4251 9155,4259 9178,4267 9202,4276 9225,4284 9249,4293 9272,4301 9296,4310 9319,4318 9343,4326 9366,4335 9390,4343 9413,4352 9437,4361 9460,4369 9484,4378 9507,4386 9531,4395 9554,4404 9578,4413 9601,4421 9624,4430 9648,4439 9671,4448 9695,4456 9718,4465 9742,4474 9766,4482 9789,4491 9813,4500 9836,4508 9860,4517 9883,4526 9907,4535 9930,4544 9953,4553 9977,4562 10000,4571 10024,4580 10047,4589 10071,4599 10094,4608 10118,4618 10141,4627 10165,4637 10188,4647 10212,4656 10235,4665 10259,4675 10282,4684 10306,4694 10329,4703 10353,4713 10376,4723 10400,4733 10423,4743 10447,4753 10470,4763 10494,4773 10517,4783 10540,4793 10564,4803 10587,4814 10611,4824 10634,4834 10658,4845 10681,4855 10705,4866 10728,4876 10752,4886 10776,4897 10799,4907 10823,4917 10846,4928 10869,4939 10893,4949 10916,4959 10940,4970 10963,4980 10987,4991 11010,5001 11034,5012 11057,5022 11081,5033 11104,5044 11128,5055 11151,5066 11175,5076 11198,5087 11222,5098 11245,5110 11269,5121 11292,5133 11316,5144 11339,5156 11363,5167 11386,5178 11410,5190 11433,5200 11457,5212 11480,5223 11503,5234 11527,5257 11574,5280 11621,5302 11668,5325 11715,5349 11762,5373 11809,5396 11856,5419 11903,5443 11950,5466 11997,5490 12044,5514 12091,5538 12138,5562 12185,5586 12232,5611 12279,5636 12326,5662 12373,5687 12419,5712 12466,5737 12513,5763 12560,5789 12607,5815 12654,5841 12702,5867 12748,5893 12795,5918 12842,5944 12889,5972 12936,5999 12983,6026 13030,6054 13077,6080 13124,6108 13171,6134 13218,6160 13265,6186 13312,6211 13359,6236 13406,6262 13453,6287 13500,6312 13547,6338 13594,6363 13641,6388 13688,6414 13735,6439 13782,6464 13829,6489 13876,6514 13923,6540 13970,6565 14017,6592 14064,6618 14111,6644 14158,6670 14205,6698 14252,6727 14299,6756 14345,6783 14392,6811 14439,6840 14486,6867 14533,6895 14580,6924 14627,6953 14674,6985 14721,7016 14768,7050 14815,7082 14862,7114 14909,7146 14956,7177 15003,7210 15050,7240 15097,7271 15144,7302 15191,7332 15238,7363 15285,7395 15332,7427 15379,7461 15426,7494 15473,7530 15520,7565 15567,7598 15614,7632 15661,7664 15708,7699 15755,7732 15802,7765 15849,7796 15895,7827 15942,7859 15990,7892 16037,7925 16084,7957 16131,7991 16178,8024 16224,8056 16271,8089 16318,8125 16365,8159 16412,8192 16459,8223 16506,8257 16553,8290 16600,8320 16647,8351 16694,8383 16741,8416 16788,8447 16835,8479 16882,8510 16929,8544 16976,8579 17023,8611 17070,8645 17117,8679 17164,8717 17210,8751 17257,8786 17304,8824 17351,8864 17398,8905 17445,8943 17492,8981 17539,9059 17633,9134 17727,9205 17820,9278 17915,9354 18009,9428 18102,9499 18196,9568 18290,9629 18384,9703 18478,9768 18572,9834 18666,9901 18760,9975 18854,10057 18948,10132 19042,10214 19136,10325 19230,10410 19324,10514 19418,10588 19512,10674 19606,10762 19699,10848 19793,10938 19888,11018 19981,11111 20075,11199 20169,11260 20263,11335 20357,11402 20451,11480 20545,11552 20639,11607 20733,11674 20827,11759 20921,11810 21015,11893 21109,11998 21203,12111 21297,12210 21391,12316 21485,12409 21578,12530 21672,12589 21766,12644 21860,12696 21954,12752 22048,12785 22142,12820 22236,12915 22424,13030 22612,13133 22800,13238 22894,13306 22988,13422 23082,13457 23270,13503 23457,13541 23739,13571 23833,13581 23927,13612 24021,13622 24115,13643 24397,13665 24491,13676 24585,13698 24679,13709 24773,13732 24867,13744 24961,13767 25054,13828 25149,13907 25243,13934 25336,13948 25524,14099 25618,14255 25712,14415 25806,14504 25900,14552 25994,14682"/>
 <path fill="none" stroke="rgb(52,101,164)" stroke-width="80" stroke-linejoin="round" d="M 5515,3588 L 5526,3823 5538,4159 5550,4343 5561,4532 5573,4732 5585,4878 5597,5000 5608,5111 5620,5209 5632,5299 5644,5381 5655,5461 5667,5540 5679,5616 5690,5694 5702,5772 5714,5852 5726,5935 5737,6022 5749,6114 5761,6213 5773,6317 5784,6421 5796,6531 5808,6645 5819,6759 5831,6873 5843,6988 5855,7101 5867,7212 5878,7319 5890,7422 5902,7523 5914,7617 5925,7709 5937,7799 5949,7885 5961,7972 5972,8059 5984,8145 5996,8232 6008,8318 6019,8403 6031,8488 6043,8578 6055,8669 6066,8754 6078,8847 6090,8939 6102,9030 6113,9116 6125,9201 6137,9290 6148,9381 6160,9474 6172,9570 6184,9669 6195,9763 6207,9862 6219,9956 6231,10056 6242,10149 6254,10238 6266,10343 6278,10441 6289,10542 6301,10638 6313,10730 6324,10829 6336,10928 6348,11024 6360,11125 6372,11222 6383,11328 6395,11434 6407,11549 6419,11639 6430,11727 6442,11846 6454,11953 6466,12064 6477,12164 6489,12261 6501,12382 6513,12489 6524,12577 6536,12694 6548,12811 6560,12889 6571,12977 6583,13026 6595,13113 6606,13208 6618,13268 6630,13355 6642,13431 6653,13480 6665,13532 6677,13614 6689,13658 6700,13719 6712,13767 6724,13826 6736,13852 6747,14003 6759,14045 6771,14121 6782,14216 6794,14347 6806,14480 6818,14595 6830,14649 6841,14725 6853,14827 6865,14894 6877,14940 6888,14965 6900,15015 6912,15094 6924,15210 6935,15485 6947,15610 6959,16032 6971,16099 6982,16170 6994,16327 7006,16615 7018,16860 7029,17176 7041,17376 7053,17621 7065,17937 7076,18382 7079,18549"/>
 <path fill="none" stroke="rgb(87,157,28)" stroke-width="80" stroke-linejoin="round" d="M 5515,3384 L 5538,3385 5550,3385 5573,3385 5585,3385 5608,3386 5620,3386 5644,3386 5655,3387 5679,3387 5690,3387 5714,3387 5726,3388 5737,3388 5761,3388 5773,3388 5796,3389 5808,3389 5831,3389 5843,3389 5867,3390 5878,3390 5902,3390 5914,3390 5925,3391 5949,3391 5961,3391 5984,3392 5996,3392 6019,3392 6031,3393 6055,3393 6066,3393 6090,3394 6102,3394 6113,3394 6137,3395 6148,3395 6172,3395 6184,3396 6207,3396 6219,3396 6242,3397 6254,3397 6278,3398 6289,3398 6301,3398 6324,3399 6336,3399 6360,3400 6372,3400 6395,3401 6407,3401 6419,3401 6430,3401 6442,3402 6466,3402 6477,3403 6489,3403 6513,3404 6524,3404 6548,3405 6560,3405 6583,3406 6595,3406 6618,3407 6630,3407 6653,3408 6665,3408 6677,3408 6700,3409 6712,3410 6736,3410 6747,3411 6771,3411 6782,3412 6806,3413 6818,3413 6841,3414 6853,3414 6865,3415 6888,3415 6900,3416 6924,3417 6935,3417 6959,3418 6971,3418 6982,3419 6994,3419 7006,3420 7029,3420 7041,3421 7065,3422 7076,3422 7088,3423 7111,3424 7123,3424 7147,3425 7158,3426 7182,3426 7194,3427 7217,3428 7229,3428 7252,3430 7264,3430 7276,3431 7299,3432 7311,3432 7335,3434 7346,3434 7370,3435 7382,3436 7405,3437 7417,3438 7440,3439 7452,3440 7464,3440 7487,3442 7499,3442 7523,3443 7534,3444 7558,3445 7569,3446 7593,3448 7605,3448 7628,3450 7640,3451 7652,3451 7675,3453 7687,3454 7710,3455 7722,3456 7745,3458 7757,3458 7781,3460 7792,3461 7816,3463 7828,3463 7840,3464 7863,3466 7875,3467 7898,3468 7910,3469 7934,3471 7945,3472 7969,3474 7981,3474 8004,3476 8016,3477 8027,3478 8051,3480 8063,3480 8086,3482 8098,3483 8121,3485 8133,3486 8157,3488 8168,3488 8192,3490 8203,3491 8215,3492 8239,3494 8250,3495 8274,3497 8286,3499 8309,3501 8321,3502 8345,3504 8356,3505 8380,3508 8392,3509 8403,3510 8427,3513 8439,3514 8462,3516 8474,3518 8497,3520 8509,3522 8521,3524 8544,3527 8568,3530 8591,3532 8615,3535 8638,3538 8661,3541 8685,3544 8708,3547 8732,3550 8755,3553 8779,3556 8803,3559 8826,3563 8850,3566 8873,3569 8897,3573 8920,3576 8944,3579 8967,3583 8990,3586 9014,3590 9037,3593 9061,3597 9084,3600 9108,3604 9131,3607 9155,3611 9178,3615 9202,3618 9225,3622 9249,3626 9272,3629 9296,3633 9319,3637 9343,3640 9366,3644 9390,3648 9413,3652 9437,3656 9460,3660 9484,3663 9507,3667 9531,3672 9554,3675 9578,3679 9601,3683 9624,3688 9648,3692 9671,3696 9695,3700 9718,3704 9742,3708 9766,3712 9789,3716 9813,3721 9836,3725 9860,3730 9883,3735 9907,3739 9930,3744 9953,3748 9977,3753 10000,3758 10024,3763 10047,3768 10071,3773 10094,3778 10118,3783 10141,3788 10165,3793 10188,3798 10212,3803 10235,3809 10259,3814 10282,3820 10306,3825 10329,3831 10353,3836 10376,3842 10400,3847 10423,3853 10447,3858 10470,3864 10494,3870 10517,3875 10540,3881 10564,3887 10587,3893 10611,3899 10634,3905 10658,3911 10681,3917 10705,3923 10728,3929 10752,3935 10776,3941 10799,3947 10823,3954 10846,3960 10869,3966 10893,3973 10916,3979 10940,3985 10963,3992 10987,3998 11010,4005 11034,4012 11057,4018 11081,4025 11104,4032 11128,4039 11151,4045 11175,4052 11198,4059 11222,4066 11245,4073 11269,4080 11292,4087 11316,4094 11339,4101 11363,4108 11386,4115 11410,4122 11433,4130 11457,4137 11480,4144 11503,4152 11527,4167 11574,4183 11621,4199 11668,4215 11715,4231 11762,4247 11809,4264 11856,4281 11903,4298 11950,4315 11997,4332 12044,4350 12091,4369 12138,4387 12185,4406 12232,4424 12279,4443 12326,4462 12373,4481 12419,4500 12466,4519 12513,4538 12560,4557 12607,4576 12654,4595 12702,4614 12748,4634 12795,4654 12842,4674 12889,4693 12936,4713 12983,4733 13030,4753 13077,4773 13124,4794 13171,4814 13218,4835 13265,4856 13312,4877 13359,4898 13406,4919 13453,4941 13500,4963 13547,4986 13594,5009 13641,5032 13688,5056 13735,5080 13782,5103 13829,5126 13876,5150 13923,5173 13970,5197 14017,5221 14064,5245 14111,5269 14158,5292 14205,5318 14252,5344 14299,5370 14345,5396 14392,5423 14439,5450 14486,5477 14533,5504 14580,5530 14627,5556 14674,5582 14721,5609 14768,5636 14815,5662 14862,5689 14909,5717 14956,5745 15003,5773 15050,5802 15097,5831 15144,5859 15191,5886 15238,5914 15285,5942 15332,5971 15379,6001 15426,6031 15473,6062 15520,6091 15567,6120 15614,6148 15661,6179 15708,6209 15755,6240 15802,6271 15849,6304 15895,6337 15942,6370 15990,6405 16037,6440 16084,6476 16131,6511 16178,6546 16224,6581 16271,6614 16318,6647 16365,6681 16412,6715 16459,6750 16506,6786 16553,6824 16600,6863 16647,6902 16694,6939 16741,6976 16788,7013 16835,7049 16882,7085 16929,7123 16976,7162 17023,7202 17070,7240 17117,7279 17164,7319 17210,7360 17257,7401 17304,7443 17351,7484 17398,7523 17445,7562 17492,7601 17539,7678 17633,7756 17727,7843 17820,7930 17915,8013 18009,8090 18102,8169 18196,8236 18290,8303 18384,8370 18478,8441 18572,8512 18666,8594 18760,8673 18854,8764 18948,8856 19042,8944 19136,9052 19230,9160 19324,9255 19418,9341 19512,9426 19606,9504 19699,9581 19793,9667 19888,9758 19981,9859 20075,9968 20169,10088 20263,10219 20357,10362 20451,10511 20545,10682 20639,10878 20733,11034 20827,11151 20921,11260 21015,11339 21109,11415 21203,11498 21297,11565 21391,11661 21485,11743 21578,11802 21672,11957 21766,12072 21860,12168 21954,12259 22048,12383 22142,12510 22236,12622 22424,12729 22612,12920 22800,13093 22894,13404 22988,14004 23082,14589 23270,15736 23457,17446 23662,18549"/>
 <path fill="none" stroke="rgb(255,211,32)" stroke-width="80" stroke-linejoin="round" d="M 5515,3384 L 5538,3385 5550,3385 5573,3385 5585,3385 5608,3386 5620,3386 5644,3386 5655,3387 5679,3387 5690,3387 5714,3388 5726,3388 5737,3388 5761,3388 5773,3388 5796,3389 5808,3389 5831,3389 5843,3389 5867,3390 5878,3390 5902,3390 5914,3390 5925,3391 5949,3391 5961,3391 5984,3392 5996,3392 6019,3392 6031,3393 6055,3393 6066,3393 6090,3394 6102,3394 6113,3394 6137,3395 6148,3395 6172,3395 6184,3395 6207,3396 6219,3396 6242,3397 6254,3397 6278,3397 6289,3398 6301,3398 6324,3399 6336,3399 6360,3399 6372,3400 6395,3400 6407,3401 6419,3401 6430,3401 6442,3401 6466,3402 6477,3402 6489,3403 6513,3403 6524,3404 6548,3404 6560,3405 6583,3405 6595,3406 6618,3406 6630,3406 6653,3407 6665,3407 6677,3408 6700,3408 6712,3409 6736,3409 6747,3410 6771,3410 6782,3411 6806,3411 6818,3412 6841,3413 6853,3413 6865,3413 6888,3414 6900,3414 6924,3415 6935,3416 6959,3416 6971,3417 6994,3417 7006,3418 7029,3419 7041,3419 7065,3420 7076,3420 7088,3421 7111,3422 7123,3422 7147,3423 7158,3423 7182,3424 7194,3425 7217,3426 7229,3426 7252,3427 7264,3428 7276,3428 7299,3429 7311,3430 7335,3431 7346,3432 7370,3433 7382,3433 7405,3434 7417,3435 7440,3436 7452,3437 7464,3437 7487,3438 7499,3439 7523,3440 7534,3441 7558,3442 7569,3442 7593,3444 7605,3444 7628,3446 7640,3447 7652,3447 7675,3449 7687,3449 7710,3451 7722,3452 7745,3453 7757,3454 7781,3455 7792,3456 7816,3458 7828,3458 7840,3459 7863,3461 7875,3461 7898,3463 7910,3464 7934,3465 7945,3466 7969,3467 7981,3468 8004,3470 8016,3471 8027,3471 8051,3473 8063,3474 8086,3475 8098,3476 8121,3478 8133,3479 8157,3480 8168,3481 8192,3483 8203,3484 8215,3485 8239,3486 8250,3487 8262,3488 8274,3489 8286,3490 8309,3492 8321,3494 8345,3496 8356,3497 8380,3499 8392,3500 8403,3501 8427,3504 8439,3505 8450,3506 8462,3507 8474,3508 8497,3511 8509,3512 8544,3517 8568,3520 8591,3522 8615,3525 8638,3528 8661,3531 8685,3533 8708,3536 8732,3539 8755,3542 8779,3546 8803,3549 8826,3552 8850,3555 8873,3559 8897,3562 8920,3565 8944,3568 8967,3571 8990,3575 9014,3578 9037,3581 9061,3585 9084,3588 9108,3591 9131,3595 9155,3598 9178,3602 9202,3606 9225,3609 9249,3613 9272,3617 9296,3620 9319,3624 9343,3628 9366,3631 9390,3635 9413,3639 9437,3643 9460,3647 9484,3650 9507,3654 9531,3658 9554,3662 9578,3666 9601,3670 9624,3674 9648,3678 9671,3682 9695,3686 9718,3690 9742,3694 9766,3698 9789,3702 9813,3707 9836,3711 9860,3716 9883,3720 9907,3725 9930,3729 9953,3733 9977,3738 10000,3743 10024,3748 10047,3752 10071,3757 10094,3762 10118,3767 10141,3772 10165,3777 10188,3782 10212,3788 10235,3793 10259,3798 10282,3803 10306,3809 10329,3814 10353,3819 10376,3825 10400,3830 10423,3836 10447,3842 10470,3847 10494,3853 10517,3859 10540,3864 10564,3870 10587,3876 10611,3882 10634,3888 10658,3894 10681,3899 10705,3905 10728,3911 10752,3917 10776,3923 10799,3929 10823,3935 10846,3941 10869,3948 10893,3954 10916,3960 10940,3966 10963,3973 10987,3979 11010,3985 11034,3991 11057,3998 11081,4004 11104,4011 11128,4017 11151,4024 11175,4030 11198,4037 11222,4044 11245,4050 11269,4057 11292,4064 11316,4070 11339,4077 11363,4084 11386,4091 11410,4098 11433,4105 11457,4112 11480,4119 11503,4126 11527,4141 11574,4156 11621,4171 11668,4186 11715,4201 11762,4216 11809,4232 11856,4248 11903,4264 11950,4280 11997,4297 12044,4314 12091,4331 12138,4349 12185,4366 12232,4385 12279,4403 12326,4422 12373,4440 12419,4458 12466,4476 12513,4494 12560,4512 12607,4530 12654,4549 12702,4567 12748,4586 12795,4605 12842,4624 12889,4643 12936,4662 12983,4681 13030,4701 13077,4721 13124,4741 13171,4762 13218,4782 13265,4802 13312,4822 13359,4842 13406,4863 13453,4884 13500,4906 13547,4929 13594,4951 13641,4974 13688,4998 13735,5021 13782,5044 13829,5066 13876,5089 13923,5112 13970,5135 14017,5158 14064,5181 14111,5205 14158,5229 14205,5254 14252,5280 14299,5305 14345,5331 14392,5357 14439,5384 14486,5410 14533,5436 14580,5462 14627,5487 14674,5513 14721,5539 14768,5566 14815,5593 14862,5619 14909,5647 14956,5675 15003,5701 15050,5728 15097,5756 15144,5782 15191,5810 15238,5838 15285,5865 15332,5895 15379,5923 15426,5954 15473,5985 15520,6015 15567,6045 15614,6075 15661,6106 15708,6137 15755,6169 15802,6201 15849,6233 15895,6266 15942,6300 15990,6333 16037,6367 16084,6402 16131,6438 16178,6475 16224,6510 16271,6543 16318,6577 16365,6612 16412,6648 16459,6685 16506,6722 16553,6761 16600,6801 16647,6840 16694,6877 16741,6915 16788,6952 16835,6990 16882,7029 16929,7067 16976,7109 17023,7152 17070,7196 17117,7239 17164,7280 17210,7323 17257,7365 17304,7408 17351,7451 17398,7490 17445,7529 17492,7569 17539,7650 17633,7728 17727,7811 17820,7899 17915,7984 18009,8062 18102,8143 18196,8219 18290,8297 18384,8374 18478,8453 18572,8529 18666,8609 18760,8686 18854,8778 18948,8870 19042,8965 19136,9061 19230,9149 19324,9219 19418,9288 19512,9362 19606,9446 19699,9523 19793,9596 19888,9667 19981,9761 20075,9854 20169,9957 20263,10079 20357,10232 20451,10365 20545,10508 20639,10663 20733,10788 20827,10897 20921,10989 21015,11047 21109,11117 21203,11212 21297,11290 21391,11376 21485,11436 21578,11528 21672,11664 21766,11754 21860,11832 21954,11940 22048,12114 22142,12258 22236,12352 22424,12421 22612,12612 22800,12860 22894,13110 22988,13727 23082,14586 23270,16067 23457,17442 23468,18549"/>
 <path fill="none" stroke="rgb(255,128,128)" stroke-width="80" stroke-linejoin="round" d="M 5515,3488 L 5526,3566 5538,3654 5550,3678 5561,3699 5573,3714 5585,3728 5597,3745 5608,3760 5620,3776 5632,3792 5644,3808 5655,3823 5667,3836 5679,3851 5690,3865 5702,3878 5714,3890 5726,3901 5737,3911 5749,3922 5761,3933 5773,3943 5796,3963 5808,3973 5819,3982 5831,3991 5843,4000 5867,4016 5878,4024 5890,4033 5902,4042 5914,4051 5925,4059 5937,4067 5949,4075 5961,4083 5984,4098 5996,4106 6008,4114 6019,4122 6031,4130 6043,4138 6055,4146 6066,4154 6090,4169 6102,4176 6113,4184 6137,4199 6148,4206 6172,4221 6184,4229 6195,4236 6207,4244 6219,4251 6231,4259 6242,4266 6254,4273 6278,4288 6289,4295 6301,4302 6313,4310 6324,4317 6336,4325 6360,4339 6372,4346 6395,4361 6407,4369 6419,4376 6430,4383 6442,4391 6454,4398 6466,4405 6477,4412 6489,4420 6501,4426 6513,4434 6524,4441 6536,4448 6548,4455 6560,4462 6583,4477 6595,4484 6618,4498 6630,4505 6653,4519 6665,4526 6677,4533 6700,4547 6712,4554 6736,4568 6747,4575 6759,4582 6771,4589 6782,4596 6794,4603 6806,4610 6818,4617 6830,4624 6841,4631 6853,4638 6865,4645 6888,4658 6900,4665 6912,4672 6924,4679 6935,4686 6947,4693 6959,4700 6971,4707 6994,4721 7006,4727 7029,4741 7041,4748 7065,4762 7076,4769 7088,4776 7111,4790 7123,4797 7147,4811 7158,4818 7182,4832 7194,4838 7205,4845 7217,4852 7229,4859 7240,4866 7252,4872 7264,4880 7276,4886 7299,4900 7311,4906 7323,4913 7335,4920 7346,4927 7358,4934 7370,4941 7382,4947 7405,4961 7417,4968 7440,4982 7452,4988 7464,4995 7476,5002 7487,5009 7499,5016 7511,5023 7523,5030 7534,5037 7558,5051 7569,5058 7593,5071 7605,5078 7628,5092 7640,5099 7652,5106 7675,5120 7687,5127 7710,5141 7722,5148 7745,5161 7757,5168 7769,5175 7781,5182 7792,5188 7804,5195 7816,5202 7828,5208 7840,5215 7863,5228 7875,5235 7898,5249 7910,5256 7922,5262 7934,5269 7945,5275 7957,5282 7969,5287 7981,5294 8004,5308 8016,5314 8027,5321 8051,5335 8063,5341 8074,5348 8086,5354 8098,5361 8110,5368 8121,5374 8133,5381 8157,5394 8168,5401 8192,5414 8203,5421 8215,5427 8227,5434 8239,5441 8250,5448 8262,5454 8274,5461 8286,5467 8298,5474 8309,5481 8321,5487 8345,5501 8356,5508 8380,5521 8392,5528 8403,5535 8415,5542 8427,5549 8439,5556 8462,5570 8474,5577 8497,5590 8509,5597 8521,5611 8544,5625 8568,5638 8591,5652 8615,5666 8638,5679 8661,5693 8685,5707 8708,5720 8732,5734 8755,5748 8779,5763 8803,5777 8826,5791 8850,5804 8873,5819 8897,5833 8920,5847 8944,5862 8967,5876 8990,5890 9014,5904 9037,5918 9061,5932 9084,5947 9108,5961 9131,5975 9155,5989 9178,6003 9202,6018 9225,6032 9249,6047 9272,6061 9296,6075 9319,6088 9343,6103 9366,6117 9390,6131 9413,6145 9437,6160 9460,6174 9484,6188 9507,6202 9531,6217 9554,6231 9578,6245 9601,6259 9624,6274 9648,6288 9671,6303 9695,6317 9718,6332 9742,6346 9766,6361 9789,6375 9813,6390 9836,6405 9860,6419 9883,6434 9907,6448 9930,6463 9953,6478 9977,6493 10000,6507 10024,6522 10047,6536 10071,6550 10094,6565 10118,6580 10141,6595 10165,6609 10188,6624 10212,6638 10235,6653 10259,6667 10282,6682 10306,6696 10329,6710 10353,6724 10376,6739 10400,6754 10423,6769 10447,6783 10470,6798 10494,6812 10517,6827 10540,6841 10564,6855 10587,6870 10611,6884 10634,6899 10658,6913 10681,6927 10705,6940 10728,6955 10752,6969 10776,6984 10799,6998 10823,7012 10846,7026 10869,7040 10893,7054 10916,7069 10940,7081 10963,7095 10987,7109 11010,7124 11034,7138 11057,7152 11081,7165 11104,7179 11128,7194 11151,7209 11175,7225 11198,7240 11222,7255 11245,7270 11269,7285 11292,7300 11316,7316 11339,7332 11363,7346 11386,7363 11410,7377 11433,7393 11457,7408 11480,7424 11503,7441 11527,7472 11574,7502 11621,7533 11668,7563 11715,7595 11762,7626 11809,7656 11856,7686 11903,7716 11950,7747 11997,7776 12044,7805 12091,7835 12138,7865 12185,7893 12232,7920 12279,7949 12326,7976 12373,8005 12419,8033 12466,8063 12513,8091 12560,8120 12607,8149 12654,8175 12702,8205 12748,8232 12795,8261 12842,8288 12889,8318 12936,8346 12983,8374 13030,8403 13077,8432 13124,8462 13171,8492 13218,8521 13265,8548 13312,8576 13359,8605 13406,8633 13453,8660 13500,8689 13547,8718 13594,8743 13641,8769 13688,8797 13735,8826 13782,8852 13829,8878 13876,8906 13923,8935 13970,8960 14017,8988 14064,9015 14111,9039 14158,9066 14205,9093 14252,9119 14299,9147 14345,9170 14392,9200 14439,9227 14486,9254 14533,9280 14580,9303 14627,9327 14674,9352 14721,9378 14768,9401 14815,9424 14862,9448 14909,9474 14956,9498 15003,9530 15050,9559 15097,9585 15144,9613 15191,9642 15238,9670 15285,9700 15332,9733 15379,9765 15426,9794 15473,9823 15520,9854 15567,9885 15614,9916 15661,9945 15708,9981 15755,10011 15802,10039 15849,10070 15895,10101 15942,10134 15990,10162 16037,10193 16084,10229 16131,10258 16178,10292 16224,10321 16271,10355 16318,10394 16365,10422 16412,10449 16459,10488 16506,10532 16553,10569 16600,10605 16647,10638 16694,10672 16741,10704 16788,10734 16835,10770 16882,10811 16929,10837 16976,10869 17023,10901 17070,10934 17117,10969 17164,11002 17210,11030 17257,11062 17304,11095 17351,11134 17398,11164 17445,11186 17492,11220 17539,11297 17633,11362 17727,11414 17820,11490 17915,11554 18009,11634 18102,11702 18196,11778 18290,11860 18384,11930 18478,11979 18572,12045 18666,12113 18760,12148 18854,12192 18948,12242 19042,12285 19136,12306 19230,12332 19324,12367 19418,12410 19512,12453 19606,12509 19699,12567 19793,12642 19888,12726 19981,12777 20075,12865 20169,12960 20263,13033 20357,13123 20451,13220 20545,13314 20639,13396 20733,13522 20827,13613 20921,13702 21015,13759 21109,13799 21203,13873 21297,13975 21391,14062 21485,14171 21578,14291 21672,14391 21766,14427 21860,14463 21954,14501 22048,14520 22142,14540 22236,14560 22424,14581 22612,14602 22800,14623 22894,14667 22988,14690 23082,14713 23270,14736 23457,14760 23739,14810 23833,14836 23927,14890 24021,14918 24115,14946 24397,15005 24491,15036 24585,15068 24679,15135 24773,15170 24867,15243 24961,15281 25054,15321 25149,15451 25243,15546 25336,15966 25524,16802 25618,17172"/>
 <path fill="none" stroke="rgb(197,0,11)" stroke-width="80" stroke-linejoin="round" d="M 5515,3486 L 5526,3563 5538,3648 5550,3672 5561,3692 5573,3707 5585,3722 5597,3738 5608,3753 5620,3769 5632,3785 5644,3800 5655,3814 5667,3827 5679,3841 5690,3855 5714,3880 5726,3891 5737,3901 5749,3912 5761,3922 5773,3933 5784,3943 5796,3953 5808,3962 5831,3980 5843,3989 5855,3997 5867,4005 5878,4013 5902,4031 5914,4039 5925,4048 5949,4064 5961,4072 5972,4079 5984,4087 5996,4095 6008,4103 6019,4111 6031,4119 6055,4134 6066,4142 6078,4149 6090,4157 6102,4164 6113,4172 6137,4187 6148,4194 6160,4202 6172,4209 6184,4217 6195,4224 6207,4232 6219,4239 6242,4254 6254,4261 6278,4275 6289,4282 6301,4289 6324,4304 6336,4311 6360,4326 6372,4333 6383,4340 6395,4347 6407,4354 6419,4362 6430,4369 6442,4376 6466,4390 6477,4397 6489,4404 6501,4411 6513,4418 6524,4425 6536,4432 6548,4439 6560,4446 6583,4460 6595,4466 6618,4481 6630,4488 6653,4501 6665,4507 6677,4514 6700,4528 6712,4535 6736,4548 6747,4555 6771,4568 6782,4575 6806,4589 6818,4596 6830,4603 6841,4610 6853,4617 6865,4623 6888,4637 6900,4644 6924,4658 6935,4664 6947,4671 6959,4678 6971,4685 6982,4692 6994,4699 7006,4705 7029,4719 7041,4726 7065,4740 7076,4747 7088,4753 7100,4760 7111,4767 7123,4774 7147,4788 7158,4794 7182,4808 7194,4815 7217,4829 7229,4836 7252,4849 7264,4857 7276,4864 7299,4877 7311,4884 7335,4898 7346,4905 7370,4918 7382,4926 7393,4933 7405,4940 7417,4946 7429,4953 7440,4960 7452,4967 7464,4974 7487,4988 7499,4995 7511,5002 7523,5009 7534,5016 7546,5022 7558,5029 7569,5037 7593,5050 7605,5057 7628,5071 7640,5078 7652,5084 7663,5091 7675,5098 7687,5105 7710,5119 7722,5126 7745,5139 7757,5146 7781,5159 7792,5166 7816,5179 7828,5185 7840,5192 7863,5205 7875,5211 7898,5224 7910,5231 7934,5244 7945,5251 7969,5263 7981,5270 8004,5283 8016,5288 8027,5295 8051,5308 8063,5314 8086,5327 8098,5334 8121,5347 8133,5353 8157,5367 8168,5373 8192,5387 8203,5393 8215,5400 8239,5413 8250,5420 8274,5433 8286,5440 8309,5453 8321,5460 8345,5473 8356,5479 8368,5486 8380,5493 8392,5499 8403,5506 8427,5520 8439,5527 8462,5540 8474,5547 8497,5560 8509,5567 8521,5580 8544,5594 8568,5607 8591,5622 8615,5635 8638,5649 8661,5662 8685,5676 8708,5690 8732,5704 8755,5717 8779,5731 8803,5745 8826,5759 8850,5774 8873,5788 8897,5802 8920,5816 8944,5830 8967,5844 8990,5858 9014,5873 9037,5887 9061,5901 9084,5915 9108,5930 9131,5944 9155,5958 9178,5972 9202,5986 9225,6000 9249,6015 9272,6029 9296,6043 9319,6058 9343,6072 9366,6086 9390,6100 9413,6114 9437,6128 9460,6142 9484,6157 9507,6171 9531,6185 9554,6199 9578,6214 9601,6227 9624,6241 9648,6255 9671,6269 9695,6283 9718,6297 9742,6311 9766,6324 9789,6337 9813,6352 9836,6365 9860,6380 9883,6393 9907,6408 9930,6423 9953,6436 9977,6450 10000,6464 10024,6479 10047,6493 10071,6508 10094,6523 10118,6537 10141,6551 10165,6566 10188,6580 10212,6595 10235,6609 10259,6623 10282,6638 10306,6651 10329,6665 10353,6681 10376,6695 10400,6710 10423,6724 10447,6738 10470,6753 10494,6767 10517,6781 10540,6796 10564,6810 10587,6825 10611,6840 10634,6855 10658,6869 10681,6882 10705,6897 10728,6912 10752,6926 10776,6940 10799,6954 10823,6969 10846,6983 10869,6998 10893,7011 10916,7027 10940,7041 10963,7054 10987,7068 11010,7083 11034,7098 11057,7112 11081,7126 11104,7141 11128,7155 11151,7170 11175,7183 11198,7197 11222,7211 11245,7225 11269,7240 11292,7256 11316,7271 11339,7285 11363,7300 11386,7314 11410,7329 11433,7343 11457,7359 11480,7374 11503,7389 11527,7418 11574,7449 11621,7480 11668,7513 11715,7545 11762,7575 11809,7605 11856,7638 11903,7668 11950,7699 11997,7729 12044,7759 12091,7789 12138,7819 12185,7847 12232,7874 12279,7906 12326,7935 12373,7962 12419,7992 12466,8023 12513,8052 12560,8081 12607,8113 12654,8141 12702,8171 12748,8202 12795,8230 12842,8258 12889,8288 12936,8317 12983,8346 13030,8374 13077,8402 13124,8434 13171,8465 13218,8493 13265,8525 13312,8555 13359,8582 13406,8613 13453,8642 13500,8672 13547,8698 13594,8727 13641,8753 13688,8782 13735,8811 13782,8838 13829,8864 13876,8894 13923,8920 13970,8949 14017,8973 14064,9002 14111,9030 14158,9053 14205,9078 14252,9110 14299,9139 14345,9165 14392,9191 14439,9220 14486,9242 14533,9267 14580,9293 14627,9319 14674,9343 14721,9369 14768,9392 14815,9415 14862,9439 14909,9463 14956,9489 15003,9516 15050,9546 15097,9570 15144,9597 15191,9626 15238,9659 15285,9683 15332,9713 15379,9742 15426,9768 15473,9800 15520,9830 15567,9855 15614,9881 15661,9908 15708,9930 15755,9958 15802,9985 15849,10012 15895,10041 15942,10075 15990,10107 16037,10134 16084,10165 16131,10205 16178,10233 16224,10273 16271,10303 16318,10337 16365,10379 16412,10409 16459,10445 16506,10485 16553,10520 16600,10552 16647,10588 16694,10622 16741,10657 16788,10700 16835,10730 16882,10765 16929,10796 16976,10825 17023,10856 17070,10888 17117,10915 17164,10943 17210,10971 17257,11008 17304,11041 17351,11076 17398,11110 17445,11137 17492,11173 17539,11235 17633,11299 17727,11358 17820,11426 17915,11485 18009,11539 18102,11594 18196,11673 18290,11738 18384,11818 18478,11883 18572,11956 18666,12048 18760,12117 18854,12180 18948,12239 19042,12309 19136,12392 19230,12456 19324,12516 19418,12558 19512,12611 19606,12642 19699,12689 19793,12718 19888,12768 19981,12804 20075,12854 20169,12902 20263,12957 20357,13014 20451,13086 20545,13162 20639,13262 20733,13332 20827,13450 20921,13525 21015,13590 21109,13704 21203,13790 21297,13810 21391,13895 21485,14011 21578,14073 21672,14182 21766,14286 21860,14302 21954,14351 22048,14402 22142,14437 22236,14474 22424,14512 22612,14551 22800,14571 22894,14592 22988,14613 23082,14634 23270,14656 23457,14724 23739,14747 23833,14771 23927,14796 24021,14821 24115,14874 24397,14901 24491,14957 24585,14986 24679,15079 24773,15112 24867,15181 24961,15254 25054,15332 25149,15508 25243,15608 25336,15840 25524,16422 25618,16813 25712,17183 25806,18189 25851,18549"/>
 <path fill="none" stroke="rgb(178,178,178)" stroke-width="40" stroke-linejoin="round" d="M 5515,3384 L 5515,4144 5515,5910 5515,8438 5515,10966 5515,13494 5515,16021 5515,18549"/>
 <text class="TextShape"><tspan class="TextParagraph" font-family="Liberation Sans, sans-serif" font-size="635px" font-weight="400"><tspan class="TextPosition" x="5343" y="19381"><tspan fill="rgb(0,0,0)" stroke="none">0</tspan></tspan></tspan></text>
 <text class="TextShape"><tspan class="TextParagraph" font-family="Liberation Sans, sans-serif" font-size="635px" font-weight="400"><tspan class="TextPosition" x="7134" y="19381"><tspan fill="rgb(0,0,0)" stroke="none">5</tspan></tspan></tspan></text>
 <text class="TextShape"><tspan class="TextParagraph" font-family="Liberation Sans, sans-serif" font-size="635px" font-weight="400"><tspan class="TextPosition" x="8754" y="19381"><tspan fill="rgb(0,0,0)" stroke="none">10</tspan></tspan></tspan></text>
 <text class="TextShape"><tspan class="TextParagraph" font-family="Liberation Sans, sans-serif" font-size="635px" font-weight="400"><tspan class="TextPosition" x="10546" y="19381"><tspan fill="rgb(0,0,0)" stroke="none">15</tspan></tspan></tspan></text>
 <text class="TextShape"><tspan class="TextParagraph" font-family="Liberation Sans, sans-serif" font-size="635px" font-weight="400"><tspan class="TextPosition" x="12338" y="19381"><tspan fill="rgb(0,0,0)" stroke="none">20</tspan></tspan></tspan></text>
 <text class="TextShape"><tspan class="TextParagraph" font-family="Liberation Sans, sans-serif" font-size="635px" font-weight="400"><tspan class="TextPosition" x="14130" y="19381"><tspan fill="rgb(0,0,0)" stroke="none">25</tspan></tspan></tspan></text>
 <text class="TextShape"><tspan class="TextParagraph" font-family="Liberation Sans, sans-serif" font-size="635px" font-weight="400"><tspan class="TextPosition" x="15922" y="19381"><tspan fill="rgb(0,0,0)" stroke="none">30</tspan></tspan></tspan></text>
 <text class="TextShape"><tspan class="TextParagraph" font-family="Liberation Sans, sans-serif" font-size="635px" font-weight="400"><tspan class="TextPosition" x="17714" y="19381"><tspan fill="rgb(0,0,0)" stroke="none">35</tspan></tspan></tspan></text>
 <text class="TextShape"><tspan class="TextParagraph" font-family="Liberation Sans, sans-serif" font-size="635px" font-weight="400"><tspan class="TextPosition" x="19506" y="19381"><tspan fill="rgb(0,0,0)" stroke="none">40</tspan></tspan></tspan></text>
 <text class="TextShape"><tspan class="TextParagraph" font-family="Liberation Sans, sans-serif" font-size="635px" font-weight="400"><tspan class="TextPosition" x="21298" y="19381"><tspan fill="rgb(0,0,0)" stroke="none">45</tspan></tspan></tspan></text>
 <text class="TextShape"><tspan class="TextParagraph" font-family="Liberation Sans, sans-serif" font-size="635px" font-weight="400"><tspan class="TextPosition" x="23090" y="19381"><tspan fill="rgb(0,0,0)" stroke="none">50</tspan></tspan></tspan></text>
 <text class="TextShape"><tspan class="TextParagraph" font-family="Liberation Sans, sans-serif" font-size="635px" font-weight="400"><tspan class="TextPosition" x="24882" y="19381"><tspan fill="rgb(0,0,0)" stroke="none">55</tspan></tspan></tspan></text>
 <text class="TextShape"><tspan class="TextParagraph" font-family="Liberation Sans, sans-serif" font-size="635px" font-weight="400"><tspan class="TextPosition" x="26674" y="19381"><tspan fill="rgb(0,0,0)" stroke="none">60</tspan></tspan></tspan></text>
 <text class="TextShape"><tspan class="TextParagraph" font-family="Liberation Sans, sans-serif" font-size="635px" font-weight="400"><tspan class="TextPosition" x="28466" y="19381"><tspan fill="rgb(0,0,0)" stroke="none">65</tspan></tspan></tspan></text>
 <text class="TextShape"><tspan class="TextParagraph" font-family="Liberation Sans, sans-serif" font-size="635px" font-weight="400"><tspan class="TextPosition" x="4170" y="4369"><tspan fill="rgb(0,0,0)" stroke="none">50%</tspan></tspan></tspan></text>
 <text class="TextShape"><tspan class="TextParagraph" font-family="Liberation Sans, sans-serif" font-size="635px" font-weight="400"><tspan class="TextPosition" x="4170" y="6136"><tspan fill="rgb(0,0,0)" stroke="none">90%</tspan></tspan></tspan></text>
 <text class="TextShape"><tspan class="TextParagraph" font-family="Liberation Sans, sans-serif" font-size="635px" font-weight="400"><tspan class="TextPosition" x="4170" y="8664"><tspan fill="rgb(0,0,0)" stroke="none">99%</tspan></tspan></tspan></text>
 <text class="TextShape"><tspan class="TextParagraph" font-family="Liberation Sans, sans-serif" font-size="635px" font-weight="400"><tspan class="TextPosition" x="3641" y="11191"><tspan fill="rgb(0,0,0)" stroke="none">99.9%</tspan></tspan></tspan></text>
 <text class="TextShape"><tspan class="TextParagraph" font-family="Liberation Sans, sans-serif" font-size="635px" font-weight="400"><tspan class="TextPosition" x="3297" y="13719"><tspan fill="rgb(0,0,0)" stroke="none">99.99%</tspan></tspan></tspan></text>
 <text class="TextShape"><tspan class="TextParagraph" font-family="Liberation Sans, sans-serif" font-size="635px" font-weight="400"><tspan class="TextPosition" x="2953" y="16247"><tspan fill="rgb(0,0,0)" stroke="none">99.999%</tspan></tspan></tspan></text>
 <text class="TextShape"><tspan class="TextParagraph" font-family="Liberation Sans, sans-serif" font-size="635px" font-weight="400"><tspan class="TextPosition" x="2609" y="18775"><tspan fill="rgb(0,0,0)" stroke="none">99.9999%</tspan></tspan></tspan></text>
 <text class="TextShape"><tspan class="TextParagraph" font-family="Liberation Sans, sans-serif" font-size="847px" font-weight="400"><tspan class="TextPosition" x="13194" y="1579"><tspan fill="rgb(0,0,0)" stroke="none">Queue Delay CCDFs</tspan></tspan></tspan></text>
 <text class="TextShape"><tspan class="TextParagraph" font-family="Liberation Sans, sans-serif" font-size="706px" font-weight="400"><tspan class="TextPosition" x="11474" y="2867"><tspan fill="rgb(0,0,0)" stroke="none">120 Mb/s link rate, 10 ms base RTT</tspan></tspan></tspan></text>
 <path fill="none" stroke="rgb(197,0,11)" stroke-width="80" stroke-linejoin="round" d="M 29353,8227 L 30153,8227"/>
 <path fill="none" stroke="rgb(255,128,128)" stroke-width="80" stroke-linejoin="round" d="M 29353,9163 L 30153,9163"/>
 <path fill="none" stroke="rgb(255,211,32)" stroke-width="80" stroke-linejoin="round" d="M 29353,10099 L 30153,10099"/>
 <path fill="none" stroke="rgb(87,157,28)" stroke-width="80" stroke-linejoin="round" d="M 29353,11035 L 30153,11035"/>
 <path fill="none" stroke="rgb(52,101,164)" stroke-width="80" stroke-linejoin="round" d="M 29353,11971 L 30153,11971"/>
 <path fill="none" stroke="rgb(255,149,14)" stroke-width="80" stroke-linejoin="round" d="M 29353,12907 L 30153,12907"/>
 <text class="TextShape"><tspan class="TextParagraph" font-family="Liberation Sans, sans-serif" font-size="706px" font-weight="400"><tspan class="TextPosition" x="30308" y="8465"><tspan fill="rgb(0,0,0)" stroke="none">AQMa CC1</tspan></tspan></tspan></text>
 <text class="TextShape"><tspan class="TextParagraph" font-family="Liberation Sans, sans-serif" font-size="706px" font-weight="400"><tspan class="TextPosition" x="30308" y="9401"><tspan fill="rgb(0,0,0)" stroke="none">AQMa CC2</tspan></tspan></tspan></text>
 <text class="TextShape"><tspan class="TextParagraph" font-family="Liberation Sans, sans-serif" font-size="706px" font-weight="400"><tspan class="TextPosition" x="30308" y="10337"><tspan fill="rgb(0,0,0)" stroke="none">AQMb CC1</tspan></tspan></tspan></text>
 <text class="TextShape"><tspan class="TextParagraph" font-family="Liberation Sans, sans-serif" font-size="706px" font-weight="400"><tspan class="TextPosition" x="30308" y="11273"><tspan fill="rgb(0,0,0)" stroke="none">AQMb CC2</tspan></tspan></tspan></text>
 <text class="TextShape"><tspan class="TextParagraph" font-family="Liberation Sans, sans-serif" font-size="706px" font-weight="400"><tspan class="TextPosition" x="30308" y="12209"><tspan fill="rgb(0,0,0)" stroke="none">AQMc CC3</tspan></tspan></tspan></text>
 <text class="TextShape"><tspan class="TextParagraph" font-family="Liberation Sans, sans-serif" font-size="706px" font-weight="400"><tspan class="TextPosition" x="30308" y="13145"><tspan fill="rgb(0,0,0)" stroke="none">AQMc CC2</tspan></tspan></tspan></text>
 <text class="TextShape"><tspan class="TextParagraph" font-family="Liberation Sans, sans-serif" font-size="847px" font-weight="400"><tspan class="TextPosition" x="13836" y="20698"><tspan fill="rgb(0,0,0)" stroke="none">Queue Delay / ms</tspan></tspan></tspan></text>
 <text class="TextShape" transform="rotate(-90 1269 18540)"><tspan class="TextParagraph" font-family="Liberation Sans, sans-serif" font-size="847px" font-weight="400"><tspan class="TextPosition" x="1269" y="18540"><tspan fill="rgb(0,0,0)" stroke="none">Complementary Percentile (log-scale)</tspan></tspan></tspan></text>
</svg>